<svg height="512" viewBox="0 0 59 58" width="512" xmlns="http://www.w3.org/2000/svg"><g id="Page-1" fill="none" fill-rule="evenodd"><g id="047---Ball-of-Wool" fill-rule="nonzero"><path id="Shape" d="m17.1 43.48c-.7451542 1.7439144-1.1197413 3.6236607-1.1 5.52.0533105.8108207-.2455993 1.6052513-.820174 2.179826s-1.3690053.8734845-2.179826.820174c-1.4 0-1.8-.47-2.93-2.49-.94-1.69-2.51-4.51-6.07-4.51-1.65685425-.01933-3.01567003 1.3081458-3.035 2.965s1.30814575 3.01567 2.965 3.035c.34089391.4496705.64202879.9281404.9 1.43 1.16 2.08 3.1 5.57 8.17 5.57 2.410644.0802112 4.7467299-.8422179 6.452256-2.547744s2.6279552-4.041612 2.547744-6.452256c-.0043538-.6558695.0661014-1.3100962.21-1.95z" fill="#f0c419"/><path id="Shape" d="m9.31 28.94c-.20452181-1.3034047-.30816278-2.620648-.31-3.94-.00764708-5.5226992 1.8216901-10.8911001 5.2-15.26l.01-.01c3.1587708-4.10487876 7.517082-7.12459075 12.47-8.64h.01c6.4823982-1.97885682 13.4903092-1.24270139 19.42 2.04l11 12.31c4.9891464 12.082522-.1655345 25.9692235-11.83 31.87h-.01c-.7484043.3898516-1.5198287.7338201-2.31 1.03-2.3498972.9089987-4.8253774 1.4519855-7.34 1.61h-.01c-.53.03-1.07.05-1.61.05-6.2353078.0053136-12.2466191-2.3242925-16.85-6.53z" fill="#f29c1f"/><path id="Shape" d="m55.82 8.01c.4951039-.03313276.9905286.05975936 1.44.27.7224412.33299853 1.2825329.93998406 1.5564954 1.68681325.2739625.74682915.2392394 1.57201315-.0964954 2.29318675-12.54 27.18-43.03 31.54-44.32 31.71-.1324447.01955-.2661209.0295757-.4.03-1.5010387-.0016081-2.7698623-1.1123627-2.97-2.6-.0682481-.4751569-.0166865-.9598362.15-1.41z" fill="#f0c419"/><g fill="#e57e25"><path id="Shape" d="m42.96 48.34c-2.3498972.9089987-4.8253774 1.4519855-7.34 1.61h-.01c-4.0051062-1.6457081-7.4011424-4.4932076-9.72-8.15-.15-.25-.28-.49-.4-.7 1.9-.68 3.96-1.5 6.1-2.51 1.6748825 2.4485581 3.6959019 4.6413641 6 6.51 1.6382934 1.31351 3.444155 2.4030801 5.37 3.24z"/><path id="Shape" d="m52.85 41.42c-2.1200302 2.4329861-4.6905542 4.4330371-7.57 5.89 2.51-7.17 2.11-15.87 1.84-19.06 2.0688018-1.9192794 3.9753018-4.0063952 5.7-6.24 1.4841188 6.3837412 1.4943784 13.0217017.03 19.41z"/><path id="Shape" d="m23.44 11.14c-.3384935 1.9776546-.4725331 3.9848979-.4 5.99.0874983 2.4881626.5354971 4.9504716 1.33 7.31-1.73.78-3.42 1.44-5.01 1.98-2.1242642-7.6097582-1.4720455-15.7270457 1.84-22.9 1.7213315-1.02929566 3.5615241-1.84529349 5.48-2.43-.7379315 1.53854252-1.3791766 3.12161622-1.92 4.74-.5816775 1.73174012-1.0231012 3.50746744-1.32 5.31z"/><path id="Shape" d="m14.15 27.97c-2.26.56-3.98.84-4.84.97-.20452181-1.3034047-.30816278-2.620648-.31-3.94-.00764708-5.5226992 1.8216901-10.8911001 5.2-15.26-1.407137 5.9932851-1.4242401 12.2290863-.05 18.23z"/></g><path id="Shape" d="m42.56 9.76c-1.5525519 2.2822098-3.3535741 4.3850794-5.37 6.27-4.02-3.51-10.31-4.57-13.75-4.89.2968988-1.80253256.7383225-3.57825988 1.32-5.31 3.65-.25 12.18-.31 17.8 3.93z" fill="#d25627"/><path id="Shape" d="m32.03 20.16c-2.4265217 1.6426374-4.9892113 3.0745319-7.66 4.28-.7945029-2.3595284-1.2425017-4.8218374-1.33-7.31 3.1989955.2614002 6.2854256 1.3016541 8.99 3.03z" fill="#d25627"/><path id="Shape" d="m41.05 33.16c-.05 2.81-.59 7.86-3.46 11.94-2.3040981-1.8686359-4.3251175-4.0614419-6-6.51 3.3062028-1.5295938 6.4716952-3.346573 9.46-5.43z" fill="#d25627"/><path id="Shape" d="m8.77 34.99c-.78994826.881858-.98847335 2.1453604-.5070327 3.2269826.48144065 1.0816223 1.55310655 1.7797502 2.7370327 1.7830174.0601734.0016565.1203804-.0016884.18-.01.0941308-.0000857.1879877-.0101418.28-.03 1.38-.21 33.81-5.56 44.33-31.85.0145413-.0317988.0246361-.06544798.03-.1.5462052-1.52047492-.2097704-3.20042074-1.71-3.8-.6793579-.2712551-1.4356455-.27838989-2.12-.02l-18.99 18.81z" fill="#f29c1f"/><path id="Shape" d="m9 35c-1.5948715-.004937-2.9070935-1.2568946-2.98695038-2.8497732-.07985689-1.5928786 1.10056962-2.9698019 2.68695038-3.1342268.347-.037 28.341-3.191 37.517-26.13.6343107-1.50835639 2.3603241-2.23019215 3.8795937-1.62248429 1.5192697.60770786 2.2713236 2.32077053 1.6904063 3.85048429-10.557 26.386-41.187 29.741-42.487 29.871-.1.01-.2.015-.3.015z" fill="#f0c419"/></g></g></svg>